<?xml version="1.0" encoding="UTF-8"?>
<svg width="2337.3" height="1211.4" version="1.1" viewBox="0 0 618.41 320.53" xmlns="http://www.w3.org/2000/svg" xmlns:cc="http://creativecommons.org/ns#" xmlns:dc="http://purl.org/dc/elements/1.1/" xmlns:rdf="http://www.w3.org/1999/02/22-rdf-syntax-ns#">
 <defs>
  <filter id="filter894" x="-6.9687e-6" y="-2.3988e-5" width="1" height="1" color-interpolation-filters="sRGB">
   <feGaussianBlur stdDeviation="0.00019447868"/>
  </filter>
 </defs>
 <metadata>
  <rdf:RDF>
   <cc:Work rdf:about="">
    <dc:format>image/svg+xml</dc:format>
    <dc:type rdf:resource="http://purl.org/dc/dcmitype/StillImage"/>
    <dc:title/>
   </cc:Work>
  </rdf:RDF>
 </metadata>
 <g transform="translate(-107.71 1.6708)">
  <rect x="156.2" y="-1.6708" width="569.91" height="288.92" ry="17.992" opacity=".997" style="paint-order:stroke fill markers"/>
  <rect x="166.16" y="5.2917" width="550" height="275" ry="9.7227" fill="#ccc" opacity=".997" style="paint-order:stroke fill markers"/>
  <path x="166.15834" y="5.2916665" width="100" height="275" rx="0" ry="0" d="m175.68 5.2917h90.475v275h-90.37a9.6302 9.6302 45 0 1-9.6302-9.6302v-255.84a9.525 9.525 135 0 1 9.525-9.525z" fill="#4d4d4d" opacity=".997" style="paint-order:stroke fill markers"/>
  <path x="261.15833" y="5.2916665" width="455" height="39.158333" ry="0" d="m261.16 5.2917h446a8.9958 8.9958 45 0 1 8.9958 8.9958v30.162h-455z" fill="#333" opacity=".997" style="paint-order:stroke fill markers"/>
  <path transform="matrix(3.1218 0 0 1.8265 282.54 -171.3)" x="-3.0200107" y="123.10435" width="66.977745" height="19.457222" d="m4.4635 123.1h52.011a7.4835 7.4835 45 0 1 7.4835 7.4835v4.8643a7.1094 7.1094 135 0 1-7.1094 7.1094h-59.868v-11.974a7.4835 7.4835 135 0 1 7.4835-7.4835z" fill="#333" filter="url(#filter894)" opacity=".997" style="paint-order:stroke fill markers"/>
  <path transform="matrix(3.5419 0 0 1.8362 -1752.2 -117.01)" x="626.68835" y="116.75435" width="66.977745" height="19.457222" d="m634.17 116.75h52.011a7.4835 7.4835 45 0 1 7.4836 7.4836v11.974h-59.04a7.9375 7.9375 45 0 1-7.9375-7.9375v-4.0362a7.4835 7.4835 135 0 1 7.4836-7.4836z" fill="#04a" filter="url(#filter894)" opacity=".997" style="paint-order:stroke fill markers"/>
  <path transform="matrix(3.1218 0 0 3.3576 282.54 -239.46)" x="-3.0200107" y="123.10435" width="66.977745" height="19.457222" d="m4.4635 123.1h52.011a7.4835 7.4835 45 0 1 7.4835 7.4835v4.8643a7.1094 7.1094 135 0 1-7.1094 7.1094h-59.868v-11.974a7.4835 7.4835 135 0 1 7.4835-7.4835z" fill="#333" filter="url(#filter894)" opacity=".997" style="paint-order:stroke fill markers"/>
  <path transform="matrix(1.0833 0 0 1.8362 -46.043 -78.914)" x="626.68835" y="116.75435" width="66.977745" height="19.457222" d="m634.17 116.75h52.011a7.4835 7.4835 45 0 1 7.4836 7.4836v11.974h-59.04a7.9375 7.9375 45 0 1-7.9375-7.9375v-4.0362a7.4835 7.4835 135 0 1 7.4836-7.4836z" fill="#04a" filter="url(#filter894)" opacity=".997" style="paint-order:stroke fill markers"/>
  <rect x="270.16" y="247.83" width="366.69" height="23.947" ry="11.377" opacity=".997" style="paint-order:stroke fill markers"/>
  <rect x="641.34" y="248.36" width="64.358" height="23.947" ry="11.377" opacity=".997" style="paint-order:stroke fill markers"/>
  <rect x="109.26" y="115.25" width="114.5" height="202.06" ry="8.6061" fill="#ccc" opacity=".997" stroke="#000" stroke-linecap="round" stroke-linejoin="round" stroke-width="3.1057" style="paint-order:stroke fill markers"/>
  <path x="132.08916" y="115.24661" width="72.153755" height="8.1887865" ry="0" d="m132.09 115.25h72.154v0.14398a8.0448 8.0448 135 0 1-8.0448 8.0448h-55.92a8.1888 8.1888 45 0 1-8.1888-8.1888z" opacity=".997" stroke="#000" stroke-linecap="round" stroke-linejoin="round" stroke-width="3.1057" style="paint-order:stroke fill markers"/>
  <path x="152.88165" y="178.00017" width="66.977745" height="19.457222" d="m160.37 178h52.011a7.4835 7.4835 45 0 1 7.4836 7.4835v11.974h-59.04a7.9375 7.9375 45 0 1-7.9375-7.9375v-4.0362a7.4835 7.4835 135 0 1 7.4836-7.4835z" fill="#04a" filter="url(#filter894)" opacity=".997" style="paint-order:stroke fill markers"/>
  <path d="m192.17 198.51h20.206c4.133 0 7.4836 3.3505 7.4836 7.4835v11.974h-27.235c-4.3838 0-7.9375-3.5537-7.9375-7.9375v-4.0362c0-4.133 3.3505-7.4835 7.4836-7.4835z" fill="#04a" filter="url(#filter894)" opacity=".997" style="paint-order:stroke fill markers"/>
  <path transform="matrix(1 0 0 .99998 116.74 28.44)" x="-3.0200107" y="123.10435" width="66.977745" height="19.457222" d="m4.4635 123.1h52.011a7.4835 7.4835 45 0 1 7.4835 7.4835v4.8643a7.1094 7.1094 135 0 1-7.1094 7.1094h-59.868v-11.974a7.4835 7.4835 135 0 1 7.4835-7.4835z" fill="#333" filter="url(#filter894)" opacity=".997" style="paint-order:stroke fill markers"/>
  <path x="113.72332" y="222.97932" width="66.977745" height="35.172661" d="m121.21 222.98h52.011a7.4835 7.4835 45 0 1 7.4836 7.4836v20.58a7.1094 7.1094 135 0 1-7.1094 7.1094h-59.868v-27.689a7.4835 7.4835 135 0 1 7.4836-7.4836z" fill="#333" filter="url(#filter894)" opacity=".997" style="paint-order:stroke fill markers"/>
  <rect x="115.68" y="303.07" width="76.2" height="9.525" ry="4.7625" opacity=".997" stroke="#000" stroke-linecap="round" stroke-linejoin="round" stroke-width="1.3229" style="paint-order:stroke fill markers"/>
  <rect x="197.26" y="303.07" width="23.067" height="9.525" ry="2.4627" opacity=".997" stroke="#000" stroke-linecap="round" stroke-linejoin="round" stroke-width="1.3229" style="paint-order:stroke fill markers"/>
 </g>
</svg>
