<?xml version="1.0" encoding="UTF-8"?>
<svg width="161.6" height="100.35" version="1.1" viewBox="0 0 42.758 26.551" xmlns="http://www.w3.org/2000/svg" xmlns:cc="http://creativecommons.org/ns#" xmlns:dc="http://purl.org/dc/elements/1.1/" xmlns:rdf="http://www.w3.org/1999/02/22-rdf-syntax-ns#">
 <metadata>
  <rdf:RDF>
   <cc:Work rdf:about="">
    <dc:format>image/svg+xml</dc:format>
    <dc:type rdf:resource="http://purl.org/dc/dcmitype/StillImage"/>
    <dc:title/>
   </cc:Work>
  </rdf:RDF>
 </metadata>
 <g transform="translate(-132.66 504.62)">
  <path transform="scale(.26458)" d="m512.54-1891.5a10.586 10.586 0 0 0-10.646 10.584v26.457a21.591 21.591 0 0 0 14.205 20.289l5.8691 2.1367v18.896l12.047-14.512 54.051 19.672a10.586 10.586 0 0 0 14.205-9.9472v-26.457a21.591 21.591 0 0 0-14.205-20.289l-71.967-26.193a10.586 10.586 0 0 0-3.5586-0.6367z" fill="#fff" stroke="#000" stroke-width="1px"/>
  <path d="m151.92-504.48a3.2303 3.2303 0 0 0-3.1915 3.2303v5.7733a6.5885 6.5885 0 0 0 4.3351 6.1908l13.724 4.9956 3.1874 6.1598v-4.9997l0.97617 0.35502a3.2303 3.2303 0 0 0 4.3351-3.0355v-5.7733a6.5886 6.5886 0 0 0-4.3351-6.1908l-17.888-6.5107a3.2303 3.2303 0 0 0-1.1436-0.19481z" fill="#fff" stroke="#000" stroke-width=".26458px"/>
  <g>
   <path d="m152.98-496.32a3.6052 3.6052 47.028 0 0 2.8191 3.0261 1.9866 1.9866 139.98 0 0 2.4926-2.0928 3.6052 3.6052 47.028 0 0-2.8191-3.0261 1.9866 1.9866 139.98 0 0-2.4926 2.0928z"/>
   <path d="m159.35-494a3.6052 3.6052 47.028 0 0 2.8191 3.026 1.9866 1.9866 139.98 0 0 2.4926-2.0928 3.6052 3.6052 47.028 0 0-2.8191-3.0261 1.9866 1.9866 139.98 0 0-2.4926 2.0928z"/>
   <path d="m165.72-491.68a3.6052 3.6052 47.028 0 0 2.8191 3.026 1.9866 1.9866 139.98 0 0 2.4926-2.0928 3.6052 3.6052 47.028 0 0-2.8191-3.026 1.9866 1.9866 139.98 0 0-2.4926 2.0928z"/>
   <g stroke="#000" stroke-width=".26458px">
    <path d="m137.04-492.55a3.5711 3.5711 53.837 0 0 2.4173 3.3074l0.47702 0.17363a1.8013 1.8013 145 0 0 2.4173-1.6926 3.5711 3.5711 53.837 0 0-2.4173-3.3074l-0.47702-0.17362a1.8013 1.8013 145 0 0-2.4173 1.6926z"/>
    <path d="m143.42-490.18a3.5724 3.5724 53.087 0 0 2.4613 3.2766l0.38913 0.14163a1.834 1.834 145 0 0 2.4613-1.7234 3.5724 3.5724 53.087 0 0-2.4613-3.2766l-0.38913-0.14163a1.834 1.834 145 0 0-2.4613 1.7234z"/>
    <path d="m152.47-489.5a4.0365 4.0365 55.432 0 1 2.6273 3.813 1.7865 1.7865 156.52 0 1-2.6844 1.1662 4.0365 4.0365 55.432 0 1-2.6273-3.8129 1.7865 1.7865 156.52 0 1 2.6844-1.1663z"/>
   </g>
  </g>
 </g>
</svg>
