<?xml version="1.0" encoding="UTF-8" standalone="no"?>
<svg
   xmlns:dc="http://purl.org/dc/elements/1.1/"
   xmlns:cc="http://creativecommons.org/ns#"
   xmlns:rdf="http://www.w3.org/1999/02/22-rdf-syntax-ns#"
   xmlns:svg="http://www.w3.org/2000/svg"
   xmlns="http://www.w3.org/2000/svg"
   xmlns:sodipodi="http://sodipodi.sourceforge.net/DTD/sodipodi-0.dtd"
   xmlns:inkscape="http://www.inkscape.org/namespaces/inkscape"
   inkscape:version="1.0 (4035a4fb49, 2020-05-01)"
   sodipodi:docname="landing-screen.svg"
   id="svg40"
   viewBox="0 0 296.19 247.48"
   version="1.1"
   height="935.37"
   width="1119.5">
  <defs
     id="defs44" />
  <sodipodi:namedview
     inkscape:current-layer="g38"
     inkscape:window-maximized="1"
     inkscape:window-y="-8"
     inkscape:window-x="-8"
     inkscape:cy="516.18666"
     inkscape:cx="594.68946"
     inkscape:zoom="0.34320801"
     showgrid="false"
     id="namedview42"
     inkscape:window-height="705"
     inkscape:window-width="1366"
     inkscape:pageshadow="2"
     inkscape:pageopacity="0"
     guidetolerance="10"
     gridtolerance="10"
     objecttolerance="10"
     borderopacity="1"
     bordercolor="#666666"
     pagecolor="#ffffff" />
  <metadata
     id="metadata2">
    <rdf:RDF>
      <cc:Work
         rdf:about="">
        <dc:format>image/svg+xml</dc:format>
        <dc:type
           rdf:resource="http://purl.org/dc/dcmitype/StillImage" />
        <dc:title />
      </cc:Work>
    </rdf:RDF>
  </metadata>
  <g
     id="g38"
     transform="translate(61.326 -82.104)">
    <rect
       id="rect4"
       style="paint-order:stroke fill markers"
       opacity=".997"
       fill="none"
       height="247.48"
       width="295.22"
       y="82.104"
       x="-61.326" />
    <g
       id="g56">
      <path
         d="m38.16 82.171a3.8189 3.8189 0 0 0-1.8805 0.5116l-5.7283 3.3073h3.8189v119.06a11.457 11.457 0 0 0 5.7283 9.9219l189.04 109.14a3.8189 3.8189 0 0 0 5.3e-4 0h-5.3e-4l-1.91 3.3068 5.7288-3.3068h5.3e-4a3.8189 3.8189 0 0 0 1.9089-3.3068v-119.06a11.457 11.457 0 0 0-5.7283-9.9219l-189.04-109.14a3.8189 3.8189 0 0 0-1.9384-0.5116z"
         fill="#999"
         id="path6" />
      <path
         d="m34.37 218.28 189.04 109.14a3.8189 3.8189 150 0 0 5.7284-3.3073v-119.06a11.457 11.457 60 0 0-5.7284-9.9219l-189.04-109.14a3.8189 3.8189 150 0 0-5.7284 3.3073v119.06a11.457 11.457 60 0 0 5.7284 9.9219z"
         fill="#4d4d4d"
         id="path8" />
      <path
         d="m34.37 94.709v2.4051a3.6455 3.6455 60 0 0 1.8228 3.1571l7.8113 4.5098a1.2152 1.2152 150 0 0 1.8228-1.0524v-2.4051a3.6455 3.6455 60 0 0-1.8228-3.1571l-7.8113-4.5098a1.2152 1.2152 150 0 0-1.8228 1.0524z"
         fill="#87aade"
         id="path10" />
      <path
         d="m51.556 104.68v2.3115a3.7265 3.7265 60 0 0 1.8633 3.2273l168.13 97.067a1.2422 1.2422 150 0 0 1.8633-1.0758v-2.3116a3.7265 3.7265 60 0 0-1.8633-3.2273l-168.13-97.067a1.2422 1.2422 150 0 0-1.8633 1.0758z"
         fill="#87aade"
         id="path12" />
    </g>
    <g
       id="g70">
      <path
         d="m129.81 174.77a3.8189 3.8189 0 0 0-1.7813 0.4563l6e-3 -0.0109-5.9862 3.4396 3.9713-0.0661v19.844a11.457 11.457 0 0 0 5.7283 9.9219l57.284 33.073 5.7288 9.9224v13.229l5.7283-3.3073v-13.229l5.7283 3.3073-1.9766 3.344 5.5904-3.2339a3.8189 3.8189 0 0 0 2.1146-3.4174v-19.844a11.457 11.457 0 0 0-5.7283-9.9219l-74.469-42.995a3.8189 3.8189 0 0 0-1.9384-0.51159z"
         fill="#003380"
         id="path14" />
      <path
         d="m124.09 178.08a3.8189 3.8189 0 0 0-3.79 3.8189v19.844a11.457 11.457 0 0 0 5.7283 9.9219l57.284 33.073 11.457 19.844v-13.229l5.7283 3.3073a3.8189 3.8189 0 0 0 5.7283-3.3073v-19.844a11.457 11.457 0 0 0-5.7283-9.9219l-74.469-42.995a3.8189 3.8189 0 0 0-1.9384-0.51159z"
         fill="#0055d4"
         id="path16" />
      <path
         style="fill:#ffffff"
         id="path18"
         d="m 131.75,198.44 v 1e-5 a 17.185,17.185 0 0 0 8.5926,14.883 5.7284,5.7284 0 0 0 8.5926,-4.9609 v -1e-5 a 17.185,17.185 0 0 0 -8.5926,-14.883 5.7284,5.7284 0 0 0 -8.5926,4.9609 z" />
      <path
         style="fill:#ffffff"
         id="path20"
         d="m 154.67,211.8 a 17.186,17.186 0 0 0 8.7072,14.817 5.7299,5.7299 0 0 0 8.478,-5.1594 17.186,17.186 0 0 0 -8.7072,-14.817 5.7299,5.7299 0 0 0 -8.478,5.1594 z" />
      <path
         style="fill:#ffffff"
         id="path22"
         d="m 177.58,225.03 a 17.186,17.186 0 0 0 8.7072,14.817 5.7299,5.7299 0 0 0 8.478,-5.1594 17.186,17.186 0 0 0 -8.7072,-14.817 5.7299,5.7299 0 0 0 -8.478,5.1594 z" />
    </g>
    <g
       id="g63">
      <path
         d="m5.4621 151.81a3.8189 3.8189 0 0 0-1.6836 0.40566l0.0165-0.0269-6.01 3.5078 3.8871-0.0677 5.2e-4 -1e-3a3.8189 3.8189 0 0 0 0 1e-3v19.844a11.457 11.457 0 0 0 5.7278 9.9219l5.7283 3.3073v13.229l11.457-6.6146 57.284 33.073-1.6722 3.1249 5.4684-3.112a3.8189 3.8189 0 0 0 5.16e-4 0l0.2837-0.16174-0.02584 1e-3a3.8189 3.8189 0 0 0 1.6738-3.1595v-19.844a11.457 11.457 0 0 0-5.7283-9.9219l-74.469-42.995a3.8189 3.8189 0 0 0-1.9384-0.5116z"
         fill="#008000"
         id="path26" />
      <path
         d="m-0.26622 155.11a3.8189 3.8189 0 0 0-3.79 3.8189v19.844a11.457 11.457 0 0 0 5.7283 9.9219l5.7283 3.3073v13.229l11.457-6.6146 57.284 33.073a3.8189 3.8189 0 0 0 5.7283-3.3073v-19.844a11.457 11.457 0 0 0-5.7283-9.9219l-74.469-42.995a3.8189 3.8189 0 0 0-1.9384-0.5116z"
         fill="#0f0"
         id="path28" />
      <path
         style="fill:#ffffff"
         id="path30"
         d="m 7.4006,175.53 a 17.185,17.185 0 0 0 8.6448,14.853 5.7287,5.7287 0 0 0 8.5404,-5.0514 17.185,17.185 0 0 0 -8.6448,-14.853 5.7287,5.7287 0 0 0 -8.5404,5.0514 z" />
      <path
         style="fill:#ffffff"
         id="path32"
         d="m 30.314,188.69 v 0.0123 a 17.174,17.174 0 0 0 8.5872,14.874 l 0.0107,0.006 a 5.7248,5.7248 0 0 0 8.5872,-4.9578 v -0.0123 a 17.174,17.174 0 0 0 -8.5872,-14.874 l -0.0107,-0.006 A 5.7248,5.7248 0 0 0 30.314,188.69 Z" />
      <path
         style="fill:#ffffff"
         id="path34"
         d="m 53.228,202.32 a 17.19,17.19 0 0 0 8.9363,14.684 5.7421,5.7421 0 0 0 8.2489,-5.5562 17.19,17.19 0 0 0 -8.9363,-14.684 5.7421,5.7421 0 0 0 -8.2489,5.5562 z" />
    </g>
  </g>
</svg>
