<?xml version="1.0" encoding="UTF-8"?>
<svg width="1119.5" height="935.37" version="1.1" viewBox="0 0 296.19 247.48" xmlns="http://www.w3.org/2000/svg" xmlns:cc="http://creativecommons.org/ns#" xmlns:dc="http://purl.org/dc/elements/1.1/" xmlns:rdf="http://www.w3.org/1999/02/22-rdf-syntax-ns#">
 <metadata>
  <rdf:RDF>
   <cc:Work rdf:about="">
    <dc:format>image/svg+xml</dc:format>
    <dc:type rdf:resource="http://purl.org/dc/dcmitype/StillImage"/>
    <dc:title/>
   </cc:Work>
  </rdf:RDF>
 </metadata>
 <g transform="translate(61.326 -82.104)">
  <rect x="-61.326" y="82.104" width="295.22" height="247.48" fill="none" opacity=".997" style="paint-order:stroke fill markers"/>
  <path d="m38.16 82.171a3.8189 3.8189 0 0 0-1.8805 0.5116l-5.7283 3.3073h3.8189v119.06a11.457 11.457 0 0 0 5.7283 9.9219l189.04 109.14a3.8189 3.8189 0 0 0 5.3e-4 0h-5.3e-4l-1.91 3.3068 5.7288-3.3068h5.3e-4a3.8189 3.8189 0 0 0 1.9089-3.3068v-119.06a11.457 11.457 0 0 0-5.7283-9.9219l-189.04-109.14a3.8189 3.8189 0 0 0-1.9384-0.5116z" fill="#999"/>
  <path d="m34.37 218.28 189.04 109.14a3.8189 3.8189 150 0 0 5.7284-3.3073v-119.06a11.457 11.457 60 0 0-5.7284-9.9219l-189.04-109.14a3.8189 3.8189 150 0 0-5.7284 3.3073v119.06a11.457 11.457 60 0 0 5.7284 9.9219z" fill="#4d4d4d"/>
  <path d="m34.37 94.709v2.4051a3.6455 3.6455 60 0 0 1.8228 3.1571l7.8113 4.5098a1.2152 1.2152 150 0 0 1.8228-1.0524v-2.4051a3.6455 3.6455 60 0 0-1.8228-3.1571l-7.8113-4.5098a1.2152 1.2152 150 0 0-1.8228 1.0524z" fill="#87aade"/>
  <path d="m51.556 104.68v2.3115a3.7265 3.7265 60 0 0 1.8633 3.2273l168.13 97.067a1.2422 1.2422 150 0 0 1.8633-1.0758v-2.3116a3.7265 3.7265 60 0 0-1.8633-3.2273l-168.13-97.067a1.2422 1.2422 150 0 0-1.8633 1.0758z" fill="#87aade"/>
  <path d="m129.81 174.77a3.8189 3.8189 0 0 0-1.7813 0.4563l6e-3 -0.0109-5.9862 3.4396 3.9713-0.0661v19.844a11.457 11.457 0 0 0 5.7283 9.9219l57.284 33.073 5.7288 9.9224v13.229l5.7283-3.3073v-13.229l5.7283 3.3073-1.9766 3.344 5.5904-3.2339a3.8189 3.8189 0 0 0 2.1146-3.4174v-19.844a11.457 11.457 0 0 0-5.7283-9.9219l-74.469-42.995a3.8189 3.8189 0 0 0-1.9384-0.51159z" fill="#003380"/>
  <path d="m124.09 178.08a3.8189 3.8189 0 0 0-3.79 3.8189v19.844a11.457 11.457 0 0 0 5.7283 9.9219l57.284 33.073 11.457 19.844v-13.229l5.7283 3.3073a3.8189 3.8189 0 0 0 5.7283-3.3073v-19.844a11.457 11.457 0 0 0-5.7283-9.9219l-74.469-42.995a3.8189 3.8189 0 0 0-1.9384-0.51159z" fill="#0055d4"/>
  <g fill="#fff">
   <path d="m131.75 198.44v1e-5a17.185 17.185 0 0 0 8.5926 14.883 5.7284 5.7284 0 0 0 8.5926-4.9609v-1e-5a17.185 17.185 0 0 0-8.5926-14.883 5.7284 5.7284 0 0 0-8.5926 4.9609z"/>
   <path d="m154.67 211.8a17.186 17.186 0 0 0 8.7072 14.817 5.7299 5.7299 0 0 0 8.478-5.1594 17.186 17.186 0 0 0-8.7072-14.817 5.7299 5.7299 0 0 0-8.478 5.1594z"/>
   <path d="m177.58 225.03a17.186 17.186 0 0 0 8.7072 14.817 5.7299 5.7299 0 0 0 8.478-5.1594 17.186 17.186 0 0 0-8.7072-14.817 5.7299 5.7299 0 0 0-8.478 5.1594z"/>
  </g>
  <path d="m5.4621 151.81a3.8189 3.8189 0 0 0-1.6836 0.40566l0.0165-0.0269-6.01 3.5078 3.8871-0.0677 5.2e-4 -1e-3a3.8189 3.8189 0 0 0 0 1e-3v19.844a11.457 11.457 0 0 0 5.7278 9.9219l5.7283 3.3073v13.229l11.457-6.6146 57.284 33.073-1.6722 3.1249 5.4684-3.112a3.8189 3.8189 0 0 0 5.16e-4 0l0.2837-0.16174-0.02584 1e-3a3.8189 3.8189 0 0 0 1.6738-3.1595v-19.844a11.457 11.457 0 0 0-5.7283-9.9219l-74.469-42.995a3.8189 3.8189 0 0 0-1.9384-0.5116z" fill="#008000"/>
  <path d="m-0.26622 155.11a3.8189 3.8189 0 0 0-3.79 3.8189v19.844a11.457 11.457 0 0 0 5.7283 9.9219l5.7283 3.3073v13.229l11.457-6.6146 57.284 33.073a3.8189 3.8189 0 0 0 5.7283-3.3073v-19.844a11.457 11.457 0 0 0-5.7283-9.9219l-74.469-42.995a3.8189 3.8189 0 0 0-1.9384-0.5116z" fill="#0f0"/>
  <g fill="#fff">
   <path d="m7.4006 175.53a17.185 17.185 0 0 0 8.6448 14.853 5.7287 5.7287 0 0 0 8.5404-5.0514 17.185 17.185 0 0 0-8.6448-14.853 5.7287 5.7287 0 0 0-8.5404 5.0514z"/>
   <path d="m30.314 188.69v0.0123a17.174 17.174 0 0 0 8.5872 14.874l0.0107 6e-3a5.7248 5.7248 0 0 0 8.5872-4.9578v-0.0123a17.174 17.174 0 0 0-8.5872-14.874l-0.0107-6e-3a5.7248 5.7248 0 0 0-8.5872 4.9578z"/>
   <path d="m53.228 202.32a17.19 17.19 0 0 0 8.9363 14.684 5.7421 5.7421 0 0 0 8.2489-5.5562 17.19 17.19 0 0 0-8.9363-14.684 5.7421 5.7421 0 0 0-8.2489 5.5562z"/>
  </g>
 </g>
</svg>
